<?xml version="1.0" encoding="UTF-8"?>
<svg width="19px" height="19px" viewBox="0 0 19 19" version="1.1" xmlns="http://www.w3.org/2000/svg" xmlns:xlink="http://www.w3.org/1999/xlink">
    <title>编组 28</title>
    <g id="移动端" stroke="none" stroke-width="1" fill="none" fill-rule="evenodd">
        <g id="首页-展开-1209" transform="translate(-297, -1114)" fill-rule="nonzero">
            <g id="编组-10" transform="translate(16, 976)">
                <g id="编组-8备份-5" transform="translate(234, 126.0898)">
                    <g id="编组-28" transform="translate(47.5, 12.4951)">
                        <g id="order-success" fill="#000000">
                            <rect id="矩形" opacity="0" x="0" y="0" width="17.994219" height="17.9929131"></rect>
                            <path d="M4.71276328,2.57042118 L5.56963252,2.57042118 L5.56963252,3.85519248 L4.71276328,3.85563176 L4.71276328,14.5656849 L10.2314356,14.5656849 L11.5338726,15.8508954 L4.71276328,15.8508954 C4.00291642,15.8508954 3.42747698,15.2754802 3.42747698,14.5656849 L3.42747698,3.85564933 C3.42747698,3.14585399 4.00291642,2.57042118 4.71276328,2.57042118 L4.71276328,2.57042118 Z M13.2814557,2.57042118 C13.9913026,2.57042118 14.566742,3.14583642 14.566742,3.85563176 L14.5663203,11.2083022 L13.2810164,12.4746588 L13.2814557,3.85563176 L12.4245865,3.85563176 L12.4245865,2.57042118 L13.2814557,2.57042118 L13.2814557,2.57042118 Z M9.42554413,9.8532636 L9.42554413,11.1384742 L5.99806715,11.1384742 L5.99806715,9.8532636 L9.42554413,9.8532636 L9.42554413,9.8532636 Z M11.9961519,7.28284243 L11.9961519,8.56805301 L5.99806715,8.56805301 L5.99806715,7.28284243 L11.9961519,7.28284243 L11.9961519,7.28284243 Z M10.2824134,1.28521059 C10.9922671,1.28521059 11.5677172,1.86061897 11.5677172,2.57042118 L11.5677172,3.42722823 C11.5677172,4.13702358 10.9922602,4.71242125 10.2824134,4.71242125 L7.71180564,4.71242125 C7.00195877,4.71242125 6.42650177,4.13702358 6.42650177,3.42722823 L6.42650177,2.57042118 C6.42650177,1.86061897 7.00195191,1.28521059 7.71180564,1.28521059 L10.2824134,1.28521059 L10.2824134,1.28521059 Z M10.2824134,2.57042118 L7.71180564,2.57042118 L7.71180564,3.42722823 L10.2824134,3.42722823 L10.2824134,2.57042118 Z" id="形状"></path>
                        </g>
                        <polygon id="路径" fill="#0052D9" points="15.4240506 11.5668777 16.3259054 12.4823726 12.8298782 15.9258718 10.710848 13.8352499 11.6135463 12.9201943 12.8307392 14.1210104 15.4240506 11.5668601"></polygon>
                    </g>
                </g>
            </g>
        </g>
    </g>
</svg>